<?xml version="1.0" encoding="UTF-8"?>
<!-- Created by Erik Dahlström, ed@opera.com. -->
<svg xmlns='http://www.w3.org/2000/svg' xmlns:xlink='http://www.w3.org/1999/xlink'  color="orange" width="960px" height="480px" viewBox="0 0 960 480">

	<defs>
		<linearGradient id="fadeGrad" y2="1" x2="0">
			<stop offset="0" stop-color="#fff" stop-opacity="0"/>
			<stop offset="0.25" stop-color="#fff" stop-opacity="1"/>
		</linearGradient>
	</defs>
<!-- 
	<animateColor attributeName="color" values="orange;cyan;crimson;purple;lime;fuchsia;orange" begin="click" dur="10s" repeatCount="indefinite"/>

	
	<g id="web2.0-reflection"  fill="currentColor">
		<g  id="text"  >
			<text font-size="40" font-weight="bold" font-family="sans-serif" text-rendering="geometricPrecision" >Instant Web 2.0 			
		 <animateMotion
	        from="0,-100" to="0,0"
	        dur="1s" fill="freeze"/> </text>

		</g>
		<use xlink:href="#text" transform="scale(1 -1)" />
	</g>
	<rect x="-200" y="0" style="fill:url(#fadeGrad);" width="960" height="200"/>
 -->
<g>
	<svg id="toreflect" x="0"  width="960" height="300" style="fill:#FFDE17;overflow:hidden" overflow="hidden">
		<!-- <rect style="fill:currentColor;" width="400" height="300"/> -->
		<ellipse style="fill:#ED1C24;" transform="translate(700,250)" rx="50" ry="50">

	    	<animate attributeName="cy" restart="whenNotActive" dur="2s" calcMode="spline"
             keySplines="0 .75 .5 1; .5 0 1 .25; 0 .25 .25 1; .5 0 1 .5; 0 0 1 1; 0 0 1 1; 0 0 1 1; 0 0 1 1; 0 0 1 1; 0 0 1 1; 0 0 1 1; 0 0 1 1"
             values="  0;    -45;      0;     -16;      0;     -7;      0;      -3;      0;     -2;      0;      -1; 0"
             keyTimes="0; 0.2564; 0.5128; 0.6154; 0.6923; 0.7436; 0.7949; 0.8462; 0.8974; 0.9231; 0.9487; 0.9744; 1" />

         	<!-- <animate attributeName="cx" dur="3s" values="-500; 0" calcMode="spline" keySplines="0 .25 .5 1"  /> -->
<!-- 
	 <animateMotion
	        from="0,-100" to="0,100"
	        dur="1s" fill="freeze"/>  -->
		</ellipse>
	</svg>
<!-- 	<rect x="500" y="301" style="fill:#F26522;" width="400" height="99"><text>test</text>
	</rect>
 -->
	<!--

	http://stackoverflow.com/questions/6711610/how-to-set-transform-origin-in-svg

	For scaling/resizing, you have to translate by (-cx, -cy), then scale and then translate back to (cx, cy). You can so this with a matrix transform:

transform="matrix(sx, 0, 0, sy, cx-sx*cx, cy-sy*cy)"
Where sx is the scaling factor in the x-axis, sy in the y-axis.

 -->

 <!-- sx=1, sy=-1, cx=0, cy=300 -->
	<use xlink:href="#toreflect"  transform="translate(0,600) scale(1 -1)" color="#159" />
	<rect transform="translate(0,300) " x="" y="0" style="fill:url(#fadeGrad);" width="980" height="300" />
		<!-- <use xlink:href="#toreflect" transform="scale(1 -0.5)" /> -->
</g>
<g filter="url(#slidingBlur)">
	<path style="fill:#21409A;" d="M81.872,138.696c0-4.079,0.972-7.211,2.916-9.396c1.944-2.184,4.86-3.276,8.748-3.276
		c3.888,0,6.804,1.092,8.748,3.276c1.944,2.185,2.916,5.317,2.916,9.396v1.944h-7.488v-2.448c0-1.824-0.349-3.107-1.044-3.852
		c-0.696-0.744-1.668-1.116-2.916-1.116c-1.249,0-2.221,0.372-2.916,1.116c-0.696,0.745-1.044,2.028-1.044,3.852
		c0,1.728,0.384,3.252,1.152,4.572c0.768,1.321,1.728,2.568,2.88,3.744c1.152,1.177,2.387,2.353,3.708,3.528
		c1.319,1.177,2.556,2.46,3.708,3.852c1.152,1.393,2.111,2.977,2.88,4.752c0.767,1.776,1.152,3.864,1.152,6.264
		c0,4.081-0.997,7.212-2.988,9.396c-1.993,2.185-4.932,3.276-8.82,3.276c-3.888,0-6.829-1.091-8.82-3.276
		c-1.992-2.184-2.988-5.315-2.988-9.396v-3.456h7.488v3.96c0,1.825,0.371,3.096,1.116,3.816c0.744,0.72,1.739,1.08,2.988,1.08
		c1.248,0,2.243-0.36,2.988-1.08c0.744-0.72,1.116-1.991,1.116-3.816c0-1.728-0.385-3.251-1.152-4.572
		c-0.769-1.319-1.728-2.567-2.88-3.744c-1.152-1.175-2.388-2.351-3.708-3.528c-1.321-1.176-2.556-2.459-3.708-3.852
		c-1.152-1.392-2.113-2.976-2.88-4.752C82.256,143.185,81.872,141.097,81.872,138.696z"/>
	<path style="fill:#21409A;" d="M135.44,177h-7.992l-1.368-9.144h-9.72L114.992,177h-7.272l8.064-50.4h11.592L135.44,177z
		 M117.368,161.016H125l-3.816-25.488L117.368,161.016z"/>
	<path style="fill:#21409A;" d="M155.887,162.384l5.4-35.784h11.016V177h-7.488v-36.144L159.343,177h-7.488l-5.904-35.64V177h-6.912
		v-50.4h11.016L155.887,162.384z"/>
	<path style="fill:#21409A;" d="M189.726,126.6c3.984,0,6.948,1.056,8.892,3.168c1.944,2.113,2.916,5.208,2.916,9.288v6.552
		c0,4.081-0.972,7.176-2.916,9.288c-1.944,2.113-4.908,3.168-8.892,3.168h-3.744V177h-7.92v-50.4H189.726z M185.982,133.8v17.064
		h3.744c1.248,0,2.208-0.335,2.88-1.008c0.672-0.671,1.008-1.919,1.008-3.744v-7.56c0-1.823-0.336-3.071-1.008-3.744
		c-0.672-0.672-1.632-1.008-2.88-1.008H185.982z"/>
	<path style="fill:#21409A;" d="M205.206,126.6h7.92v43.2h13.032v7.2h-20.952V126.6z"/>
	<path style="fill:#21409A;" d="M237.677,147.84h10.872v7.2h-10.872v14.76h13.68v7.2h-21.6v-50.4h21.6v7.2h-13.68V147.84z"/>
	<path style="fill:#00A14B;" d="M265.253,126.6h24.48v7.2h-8.28V177h-7.92v-43.2h-8.28V126.6z"/>
	<path style="fill:#00A14B;" d="M293.332,126.6h7.92V177h-7.92V126.6z"/>
	<path style="fill:#00A14B;" d="M304.851,126.6h24.48v7.2h-8.28V177h-7.92v-43.2h-8.28V126.6z"/>
	<path style="fill:#00A14B;" d="M332.93,126.6h7.92v43.2h13.032v7.2H332.93V126.6z"/>
	<path style="fill:#00A14B;" d="M365.401,147.84h10.872v7.2h-10.872v14.76h13.68v7.2h-21.6v-50.4h21.6v7.2h-13.68V147.84z"/>
</g>
<g>
	<path style="fill:#7F3F98;" d="M86.703,218.891c0.105,1.953,0.549,3.539,1.332,4.758c1.49,2.281,4.116,3.422,7.879,3.422
		c1.686,0,3.221-0.25,4.606-0.75c2.679-0.969,4.019-2.703,4.019-5.203c0-1.875-0.567-3.211-1.703-4.008
		c-1.15-0.781-2.951-1.461-5.403-2.039l-4.519-1.055c-2.952-0.688-5.041-1.445-6.267-2.273c-2.119-1.438-3.179-3.586-3.179-6.445
		c0-3.094,1.042-5.633,3.125-7.617s5.033-2.977,8.85-2.977c3.512,0,6.496,0.871,8.952,2.613s3.684,4.527,3.684,8.355h-4.383
		c-0.225-1.844-0.704-3.258-1.438-4.242c-1.364-1.797-3.678-2.695-6.943-2.695c-2.637,0-4.532,0.578-5.686,1.734
		s-1.73,2.5-1.73,4.031c0,1.688,0.681,2.922,2.044,3.703c0.893,0.5,2.914,1.125,6.063,1.875l4.678,1.102
		c2.256,0.531,3.997,1.258,5.223,2.18c2.12,1.609,3.18,3.945,3.18,7.008c0,3.812-1.353,6.539-4.057,8.18
		c-2.705,1.641-5.848,2.461-9.429,2.461c-4.175,0-7.444-1.094-9.806-3.281c-2.363-2.172-3.521-5.117-3.474-8.836H86.703z"/>
	<path style="fill:#7F3F98;" d="M128.563,214.809c0.968-0.124,1.617-0.53,1.945-1.216c0.187-0.376,0.281-0.917,0.281-1.624
		c0-1.443-0.511-2.49-1.532-3.141s-2.483-0.977-4.385-0.977c-2.199,0-3.758,0.597-4.678,1.79c-0.515,0.66-0.85,1.642-1.006,2.944
		h-3.938c0.078-3.103,1.081-5.261,3.008-6.476c1.928-1.214,4.163-1.821,6.707-1.821c2.949,0,5.345,0.562,7.187,1.688
		c1.826,1.125,2.739,2.875,2.739,5.25v14.461c0,0.438,0.09,0.789,0.27,1.055c0.18,0.265,0.559,0.397,1.137,0.397
		c0.188,0,0.398-0.012,0.633-0.035s0.484-0.058,0.75-0.105v3.117c-0.656,0.188-1.156,0.305-1.5,0.352s-0.812,0.07-1.406,0.07
		c-1.453,0-2.508-0.516-3.164-1.546c-0.344-0.547-0.586-1.32-0.727-2.32c-0.859,1.125-2.094,2.101-3.703,2.929
		c-1.609,0.828-3.383,1.242-5.32,1.242c-2.328,0-4.23-0.707-5.707-2.119s-2.215-3.179-2.215-5.302c0-2.325,0.727-4.127,2.18-5.407
		s3.359-2.068,5.719-2.365L128.563,214.809z M119.68,226.206c0.891,0.702,1.945,1.052,3.164,1.052c1.484,0,2.922-0.343,4.312-1.029
		c2.344-1.139,3.516-3.003,3.516-5.593v-3.393c-0.515,0.329-1.177,0.604-1.988,0.823c-0.811,0.22-1.606,0.376-2.386,0.47
		l-2.55,0.328c-1.528,0.203-2.677,0.522-3.447,0.959c-1.305,0.733-1.957,1.902-1.957,3.508
		C118.344,224.545,118.789,225.504,119.68,226.206z"/>
	<path style="fill:#7F3F98;" d="M141.805,204.898h4.172v3.562c1-1.234,1.906-2.133,2.719-2.695c1.391-0.953,2.969-1.43,4.734-1.43
		c2,0,3.609,0.492,4.828,1.477c0.688,0.562,1.312,1.391,1.875,2.484c0.938-1.344,2.039-2.34,3.305-2.988s2.688-0.973,4.266-0.973
		c3.375,0,5.672,1.219,6.891,3.656c0.656,1.312,0.984,3.078,0.984,5.297V230h-4.383v-17.438c0-1.672-0.418-2.82-1.254-3.445
		s-1.855-0.938-3.059-0.938c-1.656,0-3.082,0.555-4.277,1.664s-1.793,2.961-1.793,5.555V230h-4.289v-16.383
		c0-1.703-0.203-2.945-0.609-3.727c-0.641-1.172-1.836-1.758-3.586-1.758c-1.594,0-3.043,0.617-4.348,1.852
		s-1.957,3.469-1.957,6.703V230h-4.219V204.898z"/>
	<path style="fill:#7F3F98;" d="M181.438,205.016h4.125v3.328c0.846-1.141,1.771-2.023,2.773-2.648
		c1.425-0.938,3.102-1.406,5.028-1.406c2.852,0,5.272,1.09,7.261,3.27s2.984,5.293,2.984,9.34c0,5.469-1.436,9.375-4.306,11.719
		c-1.82,1.484-3.938,2.227-6.354,2.227c-1.898,0-3.49-0.414-4.776-1.242c-0.753-0.469-1.592-1.273-2.518-2.414v12.82h-4.219V205.016
		z M197.31,224.691c1.309-1.648,1.964-4.113,1.964-7.395c0-2-0.29-3.719-0.87-5.156c-1.098-2.766-3.104-4.148-6.021-4.148
		c-2.932,0-4.938,1.461-6.021,4.383c-0.58,1.562-0.87,3.547-0.87,5.953c0,1.938,0.29,3.586,0.87,4.945
		c1.097,2.594,3.104,3.891,6.021,3.891C194.358,227.164,196,226.34,197.31,224.691z"/>
	<path style="fill:#7F3F98;" d="M208.602,195.57h4.219V230h-4.219V195.57z"/>
	<path style="fill:#7F3F98;" d="M234.653,205.59c1.661,0.836,2.927,1.918,3.797,3.246c0.838,1.266,1.397,2.742,1.677,4.43
		c0.249,1.156,0.373,3,0.373,5.531h-18.258c0.078,2.554,0.675,4.603,1.791,6.146c1.116,1.543,2.845,2.315,5.186,2.315
		c2.186,0,3.93-0.73,5.232-2.189c0.729-0.848,1.245-1.829,1.549-2.943h4.148c-0.109,0.922-0.473,1.949-1.09,3.082
		s-1.306,2.059-2.065,2.777c-1.272,1.25-2.846,2.094-4.722,2.531c-1.008,0.25-2.148,0.375-3.419,0.375
		c-3.105,0-5.738-1.137-7.896-3.41s-3.237-5.457-3.237-9.551c0-4.031,1.087-7.305,3.261-9.82c2.174-2.516,5.016-3.773,8.525-3.773
		C231.275,204.336,232.991,204.754,234.653,205.59z M236.164,215.445c-0.171-1.828-0.566-3.289-1.186-4.383
		c-1.146-2.031-3.06-3.047-5.74-3.047c-1.921,0-3.532,0.699-4.834,2.098s-1.991,3.176-2.068,5.332H236.164z"/>
	<path style="fill:#7F3F98;" d="M258.828,195.453h4.102v12.492c0.925-1.203,2.031-2.121,3.317-2.754s2.683-0.949,4.188-0.949
		c3.137,0,5.682,1.074,7.635,3.223c1.953,2.148,2.929,5.316,2.929,9.504c0,3.969-0.965,7.266-2.894,9.891s-4.604,3.938-8.023,3.938
		c-1.914,0-3.529-0.461-4.847-1.383c-0.785-0.547-1.624-1.422-2.518-2.625V230h-3.891V195.453z M274.959,224.352
		c1.137-1.812,1.705-4.203,1.705-7.172c0-2.641-0.568-4.828-1.705-6.562s-2.811-2.602-5.021-2.602c-1.929,0-3.618,0.711-5.068,2.133
		s-2.175,3.766-2.175,7.031c0,2.359,0.298,4.273,0.894,5.742c1.113,2.766,3.19,4.148,6.232,4.148
		C272.109,227.07,273.822,226.164,274.959,224.352z"/>
	<path style="fill:#7F3F98;" d="M304.062,207.404c2.219,2.154,3.328,5.323,3.328,9.507c0,4.043-0.978,7.384-2.933,10.023
		c-1.955,2.638-4.988,3.957-9.1,3.957c-3.429,0-6.152-1.167-8.169-3.5c-2.017-2.334-3.025-5.468-3.025-9.402
		c0-4.215,1.062-7.571,3.188-10.069c2.125-2.498,4.98-3.747,8.564-3.747C299.128,204.172,301.844,205.249,304.062,207.404z
		 M301.443,224.086c1.028-2.114,1.542-4.467,1.542-7.058c0-2.341-0.371-4.245-1.112-5.712c-1.174-2.31-3.198-3.465-6.072-3.465
		c-2.549,0-4.403,0.983-5.562,2.95c-1.159,1.967-1.738,4.338-1.738,7.116c0,2.669,0.579,4.893,1.738,6.672
		c1.158,1.779,2.997,2.668,5.516,2.668C298.519,227.258,300.416,226.201,301.443,224.086z"/>
	<path style="fill:#7F3F98;" d="M326.361,205.672c0.747,0.469,1.595,1.289,2.545,2.461v-12.68h4.055V230h-3.797v-3.492
		c-0.98,1.547-2.141,2.664-3.479,3.352c-1.339,0.688-2.872,1.031-4.6,1.031c-2.786,0-5.199-1.176-7.238-3.527
		s-3.059-5.48-3.059-9.387c0-3.656,0.93-6.824,2.79-9.504c1.86-2.68,4.518-4.02,7.973-4.02
		C323.467,204.453,325.069,204.859,326.361,205.672z M316.944,224.492c1.135,1.812,2.954,2.719,5.457,2.719
		c1.943,0,3.54-0.84,4.792-2.52c1.251-1.68,1.877-4.09,1.877-7.23c0-3.172-0.646-5.52-1.936-7.043
		c-1.291-1.523-2.884-2.285-4.78-2.285c-2.115,0-3.829,0.812-5.142,2.438s-1.97,4.016-1.97,7.172
		C315.242,220.43,315.81,222.68,316.944,224.492z"/>
	<path style="fill:#7F3F98;" d="M354.957,204.898h4.664c-0.594,1.61-1.914,5.284-3.961,11.021
		c-1.531,4.315-2.812,7.832-3.844,10.552c-2.436,6.401-4.152,10.305-5.151,11.711c-0.999,1.404-2.716,2.107-5.151,2.107
		c-0.594,0-1.05-0.023-1.37-0.07c-0.32-0.047-0.715-0.133-1.183-0.258v-3.844c0.733,0.203,1.264,0.328,1.591,0.375
		s0.616,0.07,0.866,0.07c0.779,0,1.353-0.129,1.719-0.386c0.367-0.258,0.675-0.573,0.925-0.948c0.078-0.125,0.358-0.764,0.842-1.917
		c0.483-1.154,0.834-2.012,1.053-2.573l-9.281-25.84h4.781l6.727,20.447L354.957,204.898z"/>
	<path style="fill:#7F3F98;" d="M393.184,206.234c1.773,1.375,2.84,3.742,3.199,7.102h-4.102c-0.25-1.547-0.82-2.832-1.711-3.855
		s-2.32-1.535-4.289-1.535c-2.688,0-4.609,1.311-5.766,3.933c-0.75,1.701-1.125,3.8-1.125,6.297c0,2.513,0.531,4.627,1.594,6.344
		s2.734,2.575,5.016,2.575c1.75,0,3.137-0.533,4.16-1.599c1.023-1.066,1.73-2.525,2.121-4.377h4.102
		c-0.469,3.328-1.641,5.762-3.516,7.301s-4.273,2.309-7.195,2.309c-3.281,0-5.898-1.199-7.852-3.598s-2.93-5.395-2.93-8.988
		c0-4.406,1.07-7.836,3.211-10.289s4.867-3.68,8.18-3.68C389.109,204.172,391.41,204.859,393.184,206.234z"/>
	<path style="fill:#7F3F98;" d="M418.789,207.404c2.219,2.154,3.328,5.323,3.328,9.507c0,4.043-0.978,7.384-2.933,10.023
		c-1.955,2.638-4.988,3.957-9.1,3.957c-3.429,0-6.152-1.167-8.169-3.5c-2.017-2.334-3.025-5.468-3.025-9.402
		c0-4.215,1.062-7.571,3.188-10.069c2.125-2.498,4.98-3.747,8.564-3.747C413.855,204.172,416.57,205.249,418.789,207.404z
		 M416.169,224.086c1.028-2.114,1.542-4.467,1.542-7.058c0-2.341-0.371-4.245-1.112-5.712c-1.174-2.31-3.198-3.465-6.072-3.465
		c-2.549,0-4.403,0.983-5.562,2.95c-1.159,1.967-1.738,4.338-1.738,7.116c0,2.669,0.579,4.893,1.738,6.672
		c1.158,1.779,2.997,2.668,5.516,2.668C413.246,227.258,415.142,226.201,416.169,224.086z"/>
	<path style="fill:#7F3F98;" d="M426.945,205.016h4.125v3.328c0.846-1.141,1.771-2.023,2.773-2.648
		c1.425-0.938,3.102-1.406,5.028-1.406c2.852,0,5.272,1.09,7.261,3.27s2.984,5.293,2.984,9.34c0,5.469-1.436,9.375-4.306,11.719
		c-1.82,1.484-3.938,2.227-6.354,2.227c-1.898,0-3.49-0.414-4.776-1.242c-0.753-0.469-1.592-1.273-2.518-2.414v12.82h-4.219V205.016
		z M442.817,224.691c1.309-1.648,1.964-4.113,1.964-7.395c0-2-0.29-3.719-0.87-5.156c-1.098-2.766-3.104-4.148-6.021-4.148
		c-2.932,0-4.938,1.461-6.021,4.383c-0.58,1.562-0.87,3.547-0.87,5.953c0,1.938,0.29,3.586,0.87,4.945
		c1.097,2.594,3.104,3.891,6.021,3.891C439.866,227.164,441.508,226.34,442.817,224.691z"/>
	<path style="fill:#7F3F98;" d="M469.684,204.898h4.664c-0.594,1.61-1.914,5.284-3.961,11.021
		c-1.531,4.315-2.812,7.832-3.844,10.552c-2.436,6.401-4.152,10.305-5.151,11.711c-0.999,1.404-2.716,2.107-5.151,2.107
		c-0.594,0-1.05-0.023-1.37-0.07c-0.32-0.047-0.715-0.133-1.183-0.258v-3.844c0.733,0.203,1.264,0.328,1.591,0.375
		s0.616,0.07,0.866,0.07c0.779,0,1.353-0.129,1.719-0.386c0.367-0.258,0.675-0.573,0.925-0.948c0.078-0.125,0.358-0.764,0.842-1.917
		c0.483-1.154,0.834-2.012,1.053-2.573l-9.281-25.84h4.781l6.727,20.447L469.684,204.898z"/>
</g>

<!-- thanks to http://letmespellitoutforyou.com/samples/svg/anim_swipeBlur.svg -->
<animate
    id            = "filteredSlide"
    attributeName = "dx"
    from          = "1000"
    to            = "0"
    begin         = "0s;tgt.DOMAttrModified"
    dur           = "0.5s"
    fill          = "freeze"
    values        = "1000;0;-20;10;0"
    keyTimes      = "0;0.8;0.85;0.9;1"
    xlink:href    = "#slideEffect"
/>

<animate
    id            = "filteredBlur"
    attributeName = "stdDeviation"
    from          = "20,1"
    to            = "0,0"
    begin         = "filteredSlide.end-0.2s"
    dur           = "0.2s"
    fill          = "freeze"
    xlink:href    = "#blurEffect"
/>
<filter id="slidingBlur">
  <feOffset       id="slideEffect" dx="1000" dy="0" />
  <feGaussianBlur id="blurEffect" stdDeviation="20,1" />
</filter>
</svg>